<svg width="72" height="72" viewBox="0 0 72 72" fill="none" xmlns="http://www.w3.org/2000/svg">
<path d="M52.5 55.695C55.1596 52.5526 56.8644 48.7148 57.4131 44.6348C57.9617 40.5547 57.3314 36.4029 55.5964 32.6696C53.8615 28.9362 51.0944 25.7774 47.6219 23.566C44.1495 21.3547 40.1168 20.1832 36 20.19C35.2726 20.1941 34.5461 20.2442 33.825 20.34V16.02H17.805L22.185 21.39V25.23C19.7429 27.2215 17.7698 29.7269 16.4065 32.5679C15.0431 35.4088 14.3228 38.5155 14.297 41.6666C14.2713 44.8177 14.9406 47.9357 16.2573 50.7986C17.574 53.6615 19.5058 56.1988 21.915 58.23L17.235 63.48H51L57.96 55.74L52.5 55.695ZM36 21.96C39.9079 21.9604 43.7284 23.1163 46.9811 25.2824C50.2337 27.4485 52.7733 30.528 54.2803 34.1336C55.7873 37.7393 56.1945 41.71 55.4507 45.5465C54.7069 49.3829 52.8453 52.9138 50.1 55.695H47.91C50.762 53.2564 52.7962 50.0006 53.7373 46.3681C54.6784 42.7356 54.4811 38.9017 53.1719 35.3851C51.8628 31.8684 49.5051 28.8387 46.4177 26.7059C43.3304 24.573 39.6624 23.44 35.91 23.46C35.1773 23.4691 34.4458 23.5242 33.72 23.625V22.125C34.4764 22.0285 35.2376 21.9734 36 21.96ZM33.795 24.51C34.5259 24.4092 35.2623 24.3541 36 24.345C39.6557 24.3429 43.2195 25.4903 46.1874 27.6248C49.1552 29.7593 51.3767 32.773 52.5377 36.2394C53.6987 39.7059 53.7404 43.4496 52.6569 46.9411C51.5734 50.4325 49.4195 53.4949 46.5 55.695H33.63L33.795 24.51ZM22.275 52.605C19.8462 49.5463 18.5243 45.7557 18.5243 41.85C18.5243 37.9443 19.8462 34.1537 22.275 31.095V52.605ZM16.11 41.82C16.1125 39.1592 16.6533 36.5263 17.6999 34.08C18.7465 31.6336 20.2773 29.4243 22.2 27.585V29.715C19.2166 33.053 17.5674 37.3731 17.5674 41.85C17.5674 46.3269 19.2166 50.647 22.2 53.985V56.13C20.2695 54.2809 18.7344 52.0592 17.6876 49.5995C16.6408 47.1398 16.1041 44.4932 16.11 41.82ZM50.25 61.665H21.195L24 58.5V20.76L21.57 17.76H32.07L31.89 57.435H54L50.25 61.665Z" fill="white"/>
</svg>
